<svg id="SvgjsSvg1001" width="288" height="288" xmlns="http://www.w3.org/2000/svg" version="1.1" xmlns:xlink="http://www.w3.org/1999/xlink" xmlns:svgjs="http://svgjs.com/svgjs"><defs id="SvgjsDefs1002"></defs><g id="SvgjsG1008" transform="matrix(1,0,0,1,0,0)"><svg xmlns="http://www.w3.org/2000/svg" enable-background="new 0 0 435.2 435.2" viewBox="0 0 435.2 435.2" width="288" height="288"><path d="M356.864,224.768c0-8.704-6.656-15.36-15.36-15.36s-15.36,6.656-15.36,15.36c0,59.904-48.64,108.544-108.544,108.544
			c-59.904,0-108.544-48.64-108.544-108.544c0-8.704-6.656-15.36-15.36-15.36c-8.704,0-15.36,6.656-15.36,15.36
			c0,71.168,53.248,131.072,123.904,138.752v40.96h-55.808c-8.704,0-15.36,6.656-15.36,15.36s6.656,15.36,15.36,15.36h142.336
			c8.704,0,15.36-6.656,15.36-15.36s-6.656-15.36-15.36-15.36H232.96v-40.96C303.616,355.84,356.864,295.936,356.864,224.768z" fill="#3a3a3a" class="color000 svgShape"></path><path d="M217.6,0c-47.104,0-85.504,38.4-85.504,85.504v138.752c0,47.616,38.4,85.504,85.504,86.016
			c47.104,0,85.504-38.4,85.504-85.504V85.504C303.104,38.4,264.704,0,217.6,0z" fill="#3a3a3a" class="color000 svgShape"></path></svg></g></svg>